<svg width="204" height="46" viewBox="0 0 204 46" fill="none" xmlns="http://www.w3.org/2000/svg">
<path d="M104.872 10.9754C104.895 11.0006 104.922 11.0207 104.952 11.0345C104.983 11.0484 105.015 11.0557 105.048 11.0559C105.081 11.0562 105.114 11.0495 105.144 11.0361C105.174 11.0228 105.202 11.0031 105.225 10.9783C106.208 10.0608 107.1 9.04255 107.888 7.93873C108.131 7.61328 108.602 7.10048 108.601 6.65071C108.601 6.16312 108.038 6.24023 107.727 6.25519C107.119 6.28627 106.512 6.35341 105.905 6.40179C105.388 6.4771 104.865 6.49057 104.345 6.44195C104.326 6.43902 104.311 6.4358 104.301 6.43404C104.288 6.40472 104.267 6.35986 104.261 6.34402C104.192 6.12638 104.143 5.90233 104.115 5.67495C104.016 5.02991 103.97 4.36905 103.923 3.71404C103.875 3.06402 103.838 2.41107 103.776 1.76223C103.745 1.43971 103.759 0.875891 103.517 0.639574C103.258 0.386251 102.838 0.648662 102.575 0.792915C102.079 1.06119 101.604 1.38078 101.132 1.69714C100.203 2.31901 99.2947 3.05816 98.3179 3.58386C98.2136 3.44078 98.0812 3.3106 97.9789 3.1643C97.6035 2.63156 97.2586 2.0736 96.9054 1.52239C96.6348 1.05328 96.328 0.608093 95.988 0.191275C95.7026 -0.124206 95.3588 -0.0432841 95.2046 0.388596C95.0309 0.97123 94.921 1.57263 94.8771 2.18121C94.7804 2.97284 94.7067 3.76858 94.6722 4.56373C94.6607 4.80914 94.6206 5.7286 94.8533 5.77053C94.8791 5.77552 94.9041 5.78343 94.9298 5.78871C96.7897 6.05507 98.5983 6.62411 100.29 7.47518C102.002 8.35183 103.553 9.53662 104.872 10.9754Z" fill="#FFBC15"/>
<path d="M71.4547 14.9695H67.409L66.5844 16.8054C65.7191 16.0214 64.707 15.4165 63.6066 15.0259C62.4097 14.6035 61.1481 14.3941 59.8789 14.4072C58.117 14.3744 56.3761 14.7938 54.8224 15.6254C53.3774 16.4089 52.1827 17.584 51.3755 19.0159C51.0669 19.5585 50.8151 20.1314 50.624 20.7256C50.294 21.7713 50.1303 22.8624 50.139 23.9589C50.1158 25.5243 50.4626 27.073 51.1513 28.4789C51.2228 28.6226 51.295 28.7662 51.3747 28.9058C52.189 30.3451 53.3981 31.5213 54.8593 32.2956C56.4399 33.1278 58.2053 33.5468 59.9912 33.5138C62.1378 33.5138 63.9976 32.9773 65.5707 31.9045L65.7384 31.7367C65.702 31.3648 65.6393 30.996 65.5507 30.633C65.8096 31.7029 65.8407 32.8152 65.642 33.8979C65.4434 34.9805 65.0194 36.0093 64.3976 36.9176C63.7758 37.8259 62.9701 38.5934 62.0326 39.1702C61.0951 39.7471 60.0469 40.1205 58.9559 40.2662C57.8648 40.412 56.7553 40.3268 55.6993 40.0162C54.6433 39.7056 53.6644 39.1765 52.826 38.4632C51.9876 37.75 51.3085 36.8685 50.8327 35.8759C50.3568 34.8834 50.0949 33.8019 50.0639 32.7016V22.6116C50.0626 22.1228 50.036 21.6344 49.9842 21.1484C49.78 19.1854 49.1562 17.6268 48.0975 16.4867C46.7863 15.0759 44.9443 14.3703 42.5713 14.37C41.3286 14.3589 40.0973 14.6078 38.9566 15.1008C37.8757 15.5648 36.9195 16.2772 36.1655 17.18L35.1542 14.9695H31.1083V34.0753H36.9517V24.7837C36.9517 23.1106 37.314 21.8306 38.0386 20.944C38.3824 20.5126 38.8224 20.1676 39.3233 19.9366C39.8242 19.7056 40.3722 19.5951 40.9235 19.6137C41.3779 19.5918 41.8313 19.6731 42.2497 19.8516C42.6681 20.0301 43.0406 20.3011 43.3392 20.6442C43.9262 21.3309 44.2199 22.3612 44.2202 23.735V33.7929C44.2302 33.8874 44.2445 33.9805 44.256 34.0744C44.6955 37.518 46.4302 40.6649 49.1072 42.8751C51.7843 45.0852 55.2027 46.1928 58.6672 45.9724C62.1317 45.752 65.3823 44.2203 67.7577 41.6887C70.1331 39.1571 71.4551 35.8158 71.4547 32.3442C71.4547 32.2312 71.4489 32.1208 71.4464 32.0087C71.4506 31.8502 71.4547 31.6908 71.4547 31.5279V14.9695ZM64.5973 28.3513C64.416 28.0537 64.2152 27.7686 63.9961 27.4977C63.0871 28.1312 61.9978 28.4542 60.8905 28.4186C59.4422 28.4186 58.2622 27.994 57.3504 27.1448C56.6797 26.5387 56.2273 25.7286 56.0632 24.8397C56.0094 24.5497 55.9824 24.2553 55.9827 23.9604C55.9691 23.3625 56.0841 22.7687 56.3201 22.2193C56.5561 21.6698 56.9075 21.1775 57.3504 20.7757C58.2614 19.9271 59.4414 19.5025 60.8905 19.5019C62.3395 19.5012 63.5195 19.9258 64.4305 20.7757C64.8628 21.1859 65.207 21.6798 65.4422 22.2273C65.6774 22.7748 65.7987 23.3645 65.7987 23.9604C65.7987 24.5563 65.6774 25.1459 65.4422 25.6934C65.207 26.2409 64.8628 26.7348 64.4305 27.145C64.2933 27.2716 64.1483 27.3895 63.9963 27.498C64.2154 27.7688 64.4161 28.0538 64.5973 28.3513ZM65.5274 30.5312C65.4409 30.1939 65.3316 29.8629 65.2002 29.5405C65.3314 29.863 65.4408 30.194 65.5274 30.5312ZM65.1355 29.3835C65.0028 29.0731 64.8502 28.7716 64.6787 28.4808C64.8502 28.7716 65.0028 29.0731 65.1355 29.3835Z" fill="white"/>
<path d="M22.4565 34.0925L13.948 20.6003L21.9183 7.57177H14.5995L8.54625 17.7648H6.2854V7.5708H0V34.3944H6.28443V23.5499H8.54528L15.2126 34.3942H28.4342V14.8515H22.4563L22.4565 34.0925Z" fill="white"/>
<path d="M106.393 24.4329C107.734 23.3679 109.669 22.8354 112.199 22.8354H117.141V22.0462C117.141 21.0941 116.886 20.3673 116.376 19.866C115.865 19.3646 115.124 19.114 114.153 19.1142C113.396 19.0818 112.649 19.2931 112.026 19.716C111.485 20.1034 111.12 20.6836 111.01 21.3319H104.994C105.352 19.1524 106.336 17.4486 107.946 16.2203C109.555 14.9921 111.65 14.3783 114.229 14.3789C117.091 14.3789 119.288 15.0805 120.821 16.4836C122.354 17.8867 123.12 19.8785 123.12 22.4592V34.1482H118.981L118.061 32.156C116.452 33.8852 114.306 34.7496 111.623 34.7493C109.349 34.7493 107.574 34.2294 106.297 33.1897C105.02 32.1499 104.381 30.7154 104.381 28.8862C104.381 26.983 105.052 25.4986 106.393 24.4329ZM111.126 29.5445C111.534 29.8581 112.173 30.0148 113.041 30.0144C114.369 30.0144 115.385 29.7326 116.088 29.169C116.429 28.9023 116.702 28.5612 116.885 28.1729C117.067 27.7847 117.155 27.3599 117.141 26.9324V26.632H112.926C111.317 26.632 110.512 27.1831 110.512 28.2853C110.504 28.5281 110.555 28.7692 110.662 28.9884C110.769 29.2075 110.928 29.3983 111.125 29.5445H111.126Z" fill="white"/>
<path d="M132.296 34.1241C131.165 33.7278 130.128 33.1162 129.25 32.3261L128.369 34.1615H124.23V7.18945H130.246V16.4739C131.986 15.3819 134.03 14.8189 136.109 14.8586C137.912 14.8312 139.69 15.2616 141.263 16.1063C142.776 16.9323 144.012 18.1544 144.826 19.6294C145.67 21.2344 146.109 23.0065 146.109 24.8035C146.109 26.6006 145.67 28.3727 144.826 29.9777C144.009 31.4566 142.765 32.6794 141.243 33.5006C139.663 34.344 137.879 34.7743 136.07 34.7482C134.783 34.7597 133.505 34.5482 132.296 34.1241ZM131.319 28.234C132.321 29.1191 133.635 29.6105 134.998 29.6105C136.361 29.6105 137.674 29.1191 138.676 28.234C139.61 27.3158 140.133 26.0847 140.133 24.803C140.133 23.5212 139.61 22.2901 138.676 21.3719C137.674 20.4869 136.361 19.9955 134.998 19.9955C133.635 19.9955 132.321 20.4869 131.319 21.3719C130.385 22.2901 129.863 23.5212 129.863 24.803C129.863 26.0847 130.385 27.3158 131.319 28.234Z" fill="white"/>
<path d="M147.508 24.4329C148.85 23.3679 150.786 22.8354 153.315 22.8354H158.257V22.0462C158.257 21.0941 158.002 20.3673 157.491 19.866C156.98 19.3646 156.239 19.114 155.268 19.1142C154.511 19.0818 153.765 19.2931 153.142 19.716C152.601 20.1034 152.236 20.6836 152.126 21.3319H146.11C146.468 19.1524 147.451 17.4486 149.06 16.2203C150.669 14.9921 152.764 14.3783 155.345 14.3789C158.205 14.3789 160.403 15.0805 161.936 16.4836C163.47 17.8867 164.236 19.8785 164.235 22.4592V34.1482H160.096L159.177 32.156C157.568 33.8852 155.422 34.7496 152.739 34.7493C150.465 34.7493 148.69 34.2294 147.413 33.1897C146.136 32.1499 145.497 30.7154 145.497 28.8862C145.497 26.983 146.167 25.4986 147.508 24.4329ZM152.241 29.5445C152.649 29.8581 153.288 30.0148 154.157 30.0144C155.485 30.0144 156.501 29.7326 157.204 29.169C157.545 28.9022 157.817 28.5611 158 28.1728C158.183 27.7846 158.271 27.3599 158.257 26.9324V26.632H154.042C152.433 26.632 151.628 27.1831 151.628 28.2853C151.62 28.528 151.671 28.769 151.778 28.9882C151.884 29.2073 152.043 29.3981 152.241 29.5445Z" fill="white"/>
<path d="M177.857 20.8472C177.551 20.4934 177.17 20.214 176.742 20.03C176.314 19.846 175.85 19.7621 175.385 19.7846C174.822 19.7656 174.261 19.8798 173.749 20.118C173.237 20.3561 172.787 20.7117 172.435 21.1563C171.694 22.0708 171.323 23.39 171.323 25.114V34.6893H165.346V14.9971H169.484L170.519 17.2751C171.29 16.3447 172.268 15.6105 173.374 15.1323C174.54 14.624 175.8 14.3675 177.071 14.3793C179.499 14.3793 181.383 15.1064 182.724 16.5606C184.065 18.0148 184.735 20.1193 184.735 22.8742V34.6893H178.758V24.034C178.758 22.6174 178.457 21.5551 177.857 20.8472Z" fill="white"/>
<path d="M186.978 24.4327C188.319 23.3677 190.254 22.8352 192.783 22.8352H197.726V22.046C197.726 21.0939 197.47 20.3672 196.959 19.8659C196.448 19.3645 195.708 19.1139 194.737 19.1141C193.98 19.0816 193.233 19.293 192.611 19.7159C192.069 20.1033 191.705 20.6834 191.595 21.3317H185.578C185.936 19.1523 186.919 17.4485 188.528 16.2203C190.137 14.9921 192.232 14.3783 194.813 14.3789C197.673 14.3789 199.871 15.0804 201.404 16.4835C202.938 17.8866 203.705 19.8786 203.704 22.4595V34.1482H199.564L198.645 32.1561C197.036 33.8852 194.89 34.7496 192.207 34.7493C189.934 34.7493 188.158 34.2294 186.881 33.1897C185.604 32.15 184.965 30.7155 184.965 28.8863C184.965 26.9829 185.636 25.4983 186.978 24.4327ZM191.71 29.5441C192.118 29.8577 192.757 30.0144 193.626 30.0141C194.954 30.0141 195.97 29.7323 196.673 29.1686C197.014 28.9018 197.286 28.5607 197.469 28.1725C197.652 27.7843 197.74 27.3596 197.726 26.9321V26.6317H193.51C191.901 26.6317 191.096 27.1828 191.096 28.285C191.088 28.5277 191.139 28.7687 191.246 28.9878C191.353 29.207 191.511 29.3977 191.709 29.5441H191.71Z" fill="white"/>
<path d="M98.8121 23.6417C98.3565 25.3491 97.5648 26.6728 96.437 27.6128C95.3091 28.5528 93.8814 29.0235 92.1536 29.0249C90.8947 29.042 89.6556 28.6968 88.5716 28.0272C87.4945 27.3526 86.6212 26.374 86.052 25.2038C85.419 23.8919 85.1037 22.4375 85.1339 20.9684C85.1036 19.5016 85.4125 18.0489 86.0342 16.7337C86.5936 15.5624 87.4617 14.5827 88.536 13.9104C89.632 13.2379 90.8835 12.8931 92.1541 12.9135C93.6221 12.8761 95.062 13.3381 96.2573 14.2301C97.4425 15.1573 98.323 16.4466 98.7769 17.9199H104.645C104.326 15.889 103.562 13.9628 102.413 12.2919C101.277 10.6914 99.7891 9.40021 98.0756 8.52714C96.8708 7.93366 95.5848 7.5406 94.264 7.36218C93.5532 7.25287 92.8358 7.19565 92.1173 7.19095C89.7815 7.15505 87.4782 7.76547 85.4406 8.96036C83.4793 10.1202 81.865 11.8276 80.7782 13.8917C79.6367 16.0571 79.0538 18.496 79.0869 20.9684C79.0461 23.4575 79.6226 25.9153 80.7601 28.1021C81.8446 30.1658 83.4684 31.8639 85.4418 32.9979C87.4451 34.1645 89.7307 34.7478 92.2987 34.7478C94.3444 34.7807 96.3682 34.3033 98.2023 33.3552C99.9285 32.4501 101.413 31.1111 102.522 29.4584C103.675 27.7239 104.426 25.733 104.718 23.6429L98.8121 23.6417Z" fill="white"/>
</svg>
