<svg width="70" height="70" viewBox="0 0 70 70" fill="none" xmlns="http://www.w3.org/2000/svg">
<circle cx="35" cy="35" r="35" fill="#14A38B"/>
<path d="M51.4422 19.5476C49.369 17.464 46.8997 15.8119 44.1781 14.6877C41.4565 13.5636 38.5372 12.9899 35.5904 13.0001C23.2437 13.0001 13.1809 23.0126 13.1809 35.2976C13.1809 39.2351 14.2211 43.06 16.1658 46.435L13 58L24.8719 54.895C28.1508 56.6725 31.8367 57.6175 35.5904 57.6175C47.9372 57.6175 58 47.605 58 35.3201C58 29.3576 55.6708 23.7551 51.4422 19.5476ZM35.5904 53.8375C32.2437 53.8375 28.9648 52.9375 26.093 51.25L25.4146 50.845L18.3593 52.69L20.2362 45.85L19.7839 45.1525C17.9246 42.1982 16.9373 38.7834 16.9347 35.2976C16.9347 25.0826 25.3015 16.7576 35.5678 16.7576C40.5427 16.7576 45.2236 18.6926 48.7286 22.2026C50.4642 23.9215 51.8395 25.9661 52.775 28.2178C53.7105 30.4695 54.1875 32.8836 54.1784 35.3201C54.2236 45.535 45.8568 53.8375 35.5904 53.8375ZM45.8116 39.9776C45.2462 39.7076 42.4874 38.3576 41.9899 38.1551C41.4698 37.9751 41.108 37.8851 40.7236 38.4251C40.3392 38.9876 39.2764 40.2476 38.9598 40.6076C38.6432 40.9901 38.304 41.035 37.7387 40.7425C37.1734 40.4726 35.3643 39.8651 33.2387 37.9751C31.5653 36.4901 30.4573 34.6676 30.1181 34.1051C29.8015 33.5426 30.0729 33.2501 30.3668 32.9576C30.6156 32.7101 30.9322 32.3051 31.2035 31.9901C31.4749 31.6751 31.5879 31.4276 31.7688 31.0676C31.9497 30.6851 31.8593 30.3701 31.7236 30.1001C31.5879 29.8301 30.4573 27.0851 30.005 25.9601C29.5528 24.8801 29.0779 25.0151 28.7387 24.9926H27.6533C27.2688 24.9926 26.6809 25.1276 26.1608 25.6901C25.6633 26.2526 24.2161 27.6026 24.2161 30.3476C24.2161 33.0926 26.2286 35.7476 26.5 36.1076C26.7714 36.4901 30.4573 42.115 36.0653 44.5225C37.3995 45.1075 38.4397 45.445 39.2538 45.6925C40.5879 46.12 41.809 46.0525 42.7814 45.9175C43.8668 45.76 46.1055 44.5675 46.5578 43.2625C47.0327 41.9575 47.0327 40.8551 46.8744 40.6076C46.7161 40.3601 46.3769 40.2476 45.8116 39.9776Z" fill="white"/>
</svg>
