<svg width="43" height="43" viewBox="0 0 43 43" fill="none" xmlns="http://www.w3.org/2000/svg">
<circle cx="21.5" cy="21.5" r="18.5" fill="#FFBC15"/>
<path d="M18.2828 11.2733C19.2065 8.03657 23.7935 8.03657 24.7172 11.2733V11.2733C25.2128 13.0096 26.9966 14.0394 28.748 13.6004V13.6004C32.0129 12.782 34.3064 16.7545 31.9652 19.1729V19.1729C30.7093 20.4701 30.7093 22.5299 31.9652 23.8271V23.8271C34.3064 26.2455 32.0129 30.218 28.748 29.3996V29.3996C26.9966 28.9606 25.2128 29.9904 24.7172 31.7267V31.7267C23.7935 34.9634 19.2065 34.9634 18.2828 31.7267V31.7267C17.7872 29.9904 16.0034 28.9606 14.252 29.3996V29.3996C10.9871 30.218 8.69356 26.2455 11.0348 23.8271V23.8271C12.2907 22.5299 12.2907 20.4701 11.0348 19.1729V19.1729C8.69356 16.7545 10.9871 12.782 14.252 13.6004V13.6004C16.0034 14.0394 17.7872 13.0096 18.2828 11.2733V11.2733Z" fill="white"/>
</svg>
