<svg width="50" height="50" viewBox="0 0 50 50" fill="none" xmlns="http://www.w3.org/2000/svg">
<path d="M0 25C0 18.3696 2.63392 12.0107 7.32233 7.32233C12.0107 2.63392 18.3696 0 25 0C31.6304 0 37.9893 2.63392 42.6777 7.32233C47.3661 12.0107 50 18.3696 50 25C50 31.6304 47.3661 37.9893 42.6777 42.6777C37.9893 47.3661 31.6304 50 25 50C18.3696 50 12.0107 47.3661 7.32233 42.6777C2.63392 37.9893 0 31.6304 0 25ZM23.4375 35.9375C23.4375 36.3519 23.6021 36.7493 23.8951 37.0424C24.1882 37.3354 24.5856 37.5 25 37.5C25.4144 37.5 25.8118 37.3354 26.1049 37.0424C26.3979 36.7493 26.5625 36.3519 26.5625 35.9375L26.5625 17.8344L33.2687 24.5438C33.5621 24.8371 33.9601 25.002 34.375 25.002C34.7899 25.002 35.1879 24.8371 35.4813 24.5438C35.7746 24.2504 35.9395 23.8524 35.9395 23.4375C35.9395 23.0226 35.7746 22.6246 35.4813 22.3312L26.1063 12.9562C25.9611 12.8107 25.7887 12.6953 25.5989 12.6165C25.409 12.5378 25.2055 12.4972 25 12.4972C24.7945 12.4972 24.591 12.5378 24.4011 12.6165C24.2113 12.6953 24.0389 12.8107 23.8937 12.9562L14.5187 22.3312C14.2254 22.6246 14.0605 23.0226 14.0605 23.4375C14.0605 23.8524 14.2254 24.2504 14.5187 24.5438C14.8121 24.8371 15.2101 25.002 15.625 25.002C16.0399 25.002 16.4379 24.8371 16.7313 24.5438L23.4375 17.8344L23.4375 35.9375Z" fill="white"/>
</svg>
